<svg width="95" height="24" viewBox="0 0 95 24" fill="none" xmlns="http://www.w3.org/2000/svg">
<path d="M19.3135 1.38913L18.6056 5.33C18.544 5.67728 18.2824 5.92641 17.9285 5.92641H17.8669C16.5819 5.82827 12.9577 5.51873 10.6493 5.51873C9.74903 5.51873 8.81798 5.79807 8.81798 6.83991C8.81798 7.27778 9.14116 7.56466 10.2261 8.19882L14.1427 10.4637C16.4511 11.7849 17.3514 13.5213 17.3514 15.7257C17.3514 21.6144 12.3114 24.0076 6.86353 24.0076C4.23195 24.0076 2.17748 23.6603 0.538509 23.1847C0.253806 23.0865 -0.0078125 22.928 -0.0078125 22.6486V22.5505L0.669319 18.6851C0.730876 18.3379 1.02327 18.0585 1.40801 18.0585H1.46957C2.77766 18.1793 6.1864 18.5341 7.87923 18.5341C9.16424 18.5341 10.2261 18.0963 10.2261 16.677C10.2261 16.2013 9.90293 15.8541 8.97957 15.2576L4.83983 12.5776C2.97772 11.3772 2.08514 9.33125 2.08514 7.37592C2.08514 1.70622 6.60961 0.00756836 11.7112 0.00756836C14.2427 0.00756836 17.5822 0.415244 18.8364 0.792721C19.0981 0.890865 19.3212 1.01166 19.3212 1.29854V1.39668H19.3135V1.38913Z" fill="#164194"/>
<path d="M37.8813 1.00409L37.2041 4.84681C37.1426 5.19409 36.7886 5.47342 36.4347 5.47342H29.9481C28.7862 5.47342 28.3399 5.8509 28.1167 7.05127L27.7012 9.35388H35.5959C35.9191 9.35388 36.1423 9.57282 36.1423 9.8899V9.98805L35.4651 13.7024C35.4036 14.0497 35.0804 14.329 34.7264 14.329H26.8317L26.3469 16.9487C26.3085 17.2054 26.2854 17.3866 26.2854 17.5753C26.2854 18.3001 26.6701 18.519 27.5935 18.519H34.0801C34.4033 18.519 34.6264 18.738 34.6264 19.055V19.1532L33.9185 22.9959C33.857 23.3734 33.5953 23.5621 33.1798 23.6225C31.9333 23.7811 29.9711 24 26.8548 24C23.0998 24 19.668 22.6788 19.668 18.5568C19.668 18.051 19.7295 17.5149 19.8296 16.9563L21.5993 7.07392C22.7304 0.694558 26.5855 0 31.11 0C34.2263 0 36.173 0.218937 37.3657 0.377477C37.7197 0.415225 37.8813 0.573765 37.8813 0.883297V1.00409Z" fill="#164194"/>
<path d="M60.9922 0.658065L57.0909 22.8077C56.9663 23.4503 56.3121 24 55.6658 24H51.6398C51.0558 24 50.6976 23.7368 50.4406 23.1329L45.636 12.3174C45.5347 12.0929 45.4335 12.0542 45.3478 12.0542C45.2622 12.0542 45.1843 12.1161 45.1531 12.3406L43.2064 23.3497C43.1441 23.7058 42.7859 23.9923 42.4276 23.9923H37.5529C37.2258 23.9923 37 23.7677 37 23.4426V23.3419L40.8936 1.19226C41.0182 0.549677 41.6723 0 42.3186 0H46.2823C46.8975 0 47.1544 0.387097 47.4192 0.936774L52.3563 12.0774C52.4575 12.3019 52.4809 12.3639 52.5821 12.3639C52.6833 12.3639 52.7768 12.3252 52.8079 12.0774L54.8248 0.650323C54.8871 0.294194 55.2453 0.00774197 55.6035 0.00774197H60.4783C60.8053 0.00774197 61 0.232258 61 0.526452V0.650323L60.9922 0.658065Z" fill="#164194"/>
<path d="M79.3844 24H73.9209C73.5977 24 73.3745 23.7167 73.3745 23.3952L73.2745 18.955H67.5647L65.8641 23.3952C65.7409 23.7167 65.4485 24 65.1253 24H59.4463C59.1616 24 59 23.8392 59 23.5866C59 23.5254 59.0385 23.4258 59.0616 23.3263L66.8336 3.79713C68.0879 0.635407 70.6273 0 73.6746 0C76.7219 0 79.0381 0.635407 79.1612 3.79713L80 23.3263V23.3646C80 23.7167 79.7384 24 79.3921 24H79.3844ZM73.1206 5.73397C73.1206 5.45072 73.1206 5.28995 72.8358 5.28995C72.5511 5.28995 72.5126 5.45072 72.4203 5.73397L69.4038 13.8488H73.2591L73.1359 5.73397H73.1283H73.1206Z" fill="#164194"/>
<path d="M94.2639 0.611815C94.3271 0.193612 94.0587 0 93.7035 0H88.3044C87.9413 0 87.6098 0.263313 87.5466 0.611815L86.5205 6.34274L93.8377 2.97389L94.256 0.604071L94.2639 0.611815Z" fill="#E84910"/>
<path d="M86.0551 8.9139L83.466 23.3496C83.4029 23.6749 83.5923 23.9924 83.9949 23.9924H89.3939C89.8912 23.9924 90.1201 23.7059 90.1833 23.3496L93.3801 5.54504L86.0629 8.9139H86.0551Z" fill="#164194"/>
</svg>
